<?xml version="1.0" encoding="utf-8"?>
<!-- Generator: Adobe Illustrator 24.1.1, SVG Export Plug-In . SVG Version: 6.00 Build 0)  -->
<svg version="1.1" id="Layer_1" xmlns="http://www.w3.org/2000/svg" xmlns:xlink="http://www.w3.org/1999/xlink" x="0px" y="0px"
	 viewBox="0 0 150 150" style="enable-background:new 0 0 150 150;" xml:space="preserve">
<style type="text/css">
	.st0{fill:#1C3AA9;}
	.st1{fill:#4285F4;}
	.st2{fill:#ABABAB;}
	.st3{fill:#737577;}
</style>
<path class="st0" d="M117,62.1c-6.4,0.1-22,0.1-35.8,0l10.9,10.8c-3.3,5.3-9,8.9-15.5,9.4c-0.4,0.1-0.9,0.2-1.5,0.2
	c-5.3,0-9.1-1.7-11.8-3.8c-2.5-1.8-4.7-4.2-6.2-7L41.7,87.3c7.6,10.1,19.8,16.6,33.4,16.6c13.1,0,24.8-6,32.5-15.4l9.4,9.4v-34
	C117,63.3,117,62.7,117,62.1"/>
<path class="st1" d="M74.8,104c-0.1-6.5,0-22.1,0.1-35.9L64,79c-5.3-3.3-8.9-9-9.4-15.5c-0.1-0.4-0.2-0.9-0.2-1.5
	c0-5.3,1.7-9.1,3.8-11.8c1.8-2.5,4.2-4.7,7-6.2L49.6,28.6C39.5,36.2,33,48.4,33,62c0,13.1,6,24.8,15.4,32.6L39,104h34
	C73.6,104,74.2,104,74.8,104"/>
<path class="st2" d="M33,62c6.4-0.1,22,0,35.8,0.1L57.9,51.2c3.3-5.3,9-8.9,15.5-9.4c0.4-0.1,0.9-0.2,1.5-0.2
	c5.3,0,9.1,1.7,11.8,3.8c2.5,1.8,4.7,4.2,6.2,7l15.4-15.6c-7.6-10.1-19.8-16.6-33.4-16.6c-13.1,0-24.8,6-32.5,15.4L33,26.2v34
	C33,60.8,33,61.4,33,62"/>
<path class="st3" d="M46.7,120.5c-1,0-1.9,0.2-2.7,0.6s-1.5,0.9-2,1.6s-1,1.5-1.2,2.5c-0.3,1-0.4,2.1-0.4,3.3v3.5
	c0,1.2,0.1,2.3,0.4,3.3c0.3,1,0.7,1.8,1.2,2.5s1.2,1.2,1.9,1.6c0.8,0.4,1.6,0.6,2.5,0.6c1,0,1.8-0.1,2.5-0.4
	c0.7-0.3,1.4-0.7,1.9-1.2s0.9-1.2,1.1-2c0.3-0.8,0.4-1.6,0.5-2.6H50c-0.1,0.7-0.2,1.4-0.3,1.9s-0.4,1-0.6,1.3
	c-0.3,0.3-0.6,0.6-1.1,0.7c-0.4,0.2-1,0.2-1.6,0.2c-0.7,0-1.3-0.1-1.7-0.4c-0.5-0.3-0.9-0.7-1.2-1.3c-0.3-0.5-0.5-1.2-0.6-1.9
	s-0.2-1.5-0.2-2.3v-3.5c0-0.9,0.1-1.7,0.2-2.4c0.2-0.7,0.4-1.3,0.7-1.8s0.7-0.9,1.2-1.2c0.5-0.3,1.1-0.4,1.8-0.4
	c0.6,0,1.1,0.1,1.5,0.3c0.4,0.2,0.8,0.4,1,0.8c0.3,0.3,0.5,0.8,0.6,1.3s0.2,1.2,0.3,1.9h2.4c0-1-0.2-1.9-0.5-2.7
	c-0.3-0.8-0.7-1.4-1.1-2c-0.5-0.5-1.1-0.9-1.8-1.2C48.4,120.7,47.6,120.5,46.7,120.5L46.7,120.5z M104.7,120.5c-1,0-1.9,0.2-2.7,0.6
	c-0.8,0.4-1.5,0.9-2,1.6s-1,1.5-1.2,2.5c-0.3,1-0.4,2.1-0.4,3.3v3.5c0,1.2,0.1,2.3,0.4,3.3s0.7,1.8,1.2,2.5s1.2,1.2,1.9,1.6
	c0.8,0.4,1.6,0.6,2.5,0.6c1,0,1.8-0.1,2.5-0.4c0.7-0.3,1.4-0.7,1.9-1.2s0.9-1.2,1.1-2c0.3-0.8,0.4-1.6,0.5-2.6H108
	c-0.1,0.7-0.2,1.4-0.3,1.9c-0.1,0.5-0.4,1-0.6,1.3c-0.3,0.3-0.6,0.6-1.1,0.7c-0.4,0.2-1,0.2-1.6,0.2c-0.7,0-1.3-0.1-1.7-0.4
	c-0.5-0.3-0.9-0.7-1.2-1.3c-0.3-0.5-0.5-1.2-0.6-1.9s-0.2-1.5-0.2-2.3v-3.5c0-0.9,0.1-1.7,0.2-2.4c0.2-0.7,0.4-1.3,0.7-1.8
	c0.3-0.5,0.7-0.9,1.2-1.2c0.5-0.3,1.1-0.4,1.8-0.4c0.6,0,1.1,0.1,1.5,0.3c0.4,0.2,0.8,0.4,1,0.8c0.3,0.3,0.5,0.8,0.6,1.3
	s0.2,1.2,0.3,1.9h2.4c0-1-0.2-1.9-0.5-2.7c-0.3-0.8-0.7-1.4-1.1-2c-0.5-0.5-1.1-0.9-1.8-1.2C106.4,120.7,105.6,120.5,104.7,120.5
	L104.7,120.5z M60.2,120.8l-6,18.7h2.4l1.5-4.9h6.3l1.5,4.9h2.4l-6-18.7H60.2z M70.8,120.8v18.7h2.4v-7.3h3.6c0.9,0,1.7-0.1,2.4-0.4
	c0.7-0.3,1.3-0.6,1.7-1.1c0.5-0.5,0.8-1.1,1.1-1.8c0.2-0.7,0.4-1.5,0.4-2.4c0-0.8-0.1-1.6-0.4-2.3c-0.2-0.7-0.6-1.3-1.1-1.8
	s-1.1-0.9-1.8-1.2c-0.7-0.3-1.5-0.4-2.4-0.4L70.8,120.8z M84.2,120.8v2h4.9v16.7h2.4v-16.7h4.9v-2H84.2z M113.7,120.8v18.7h2.4v-8.7
	h7.5v8.7h2.4v-18.7h-2.4v8h-7.5v-8H113.7z M134.9,120.8l-6,18.7h2.4l1.5-4.9h6.3l1.5,4.9h2.4l-6-18.7H134.9z M73.2,122.8h3.6
	c0.6,0,1.1,0.1,1.5,0.3c0.4,0.2,0.7,0.5,1,0.8s0.5,0.7,0.6,1.2c0.1,0.4,0.2,0.9,0.2,1.4s-0.1,1-0.2,1.5c-0.1,0.4-0.3,0.8-0.6,1.1
	c-0.3,0.3-0.6,0.6-1,0.7c-0.4,0.2-0.9,0.3-1.5,0.3h-3.6V122.8z M61.2,124.1l2.6,8.5h-5.1L61.2,124.1z M135.9,124.1l2.6,8.5h-5.1
	L135.9,124.1z M12.5,125.3c-0.6,0-1.1,0.1-1.5,0.4s-0.8,0.7-1.1,1.2v-1.4H7.7v13.9H10v-10c0.2-0.6,0.5-1.1,0.9-1.4
	c0.4-0.3,0.9-0.5,1.5-0.5c0.2,0,0.4,0,0.5,0c0.2,0,0.3,0,0.5,0.1v-2.2c0,0-0.1,0-0.2-0.1c-0.1,0-0.1,0-0.2-0.1c-0.1,0-0.2,0-0.3,0
	C12.6,125.3,12.6,125.3,12.5,125.3L12.5,125.3z M32.8,125.3c-0.7,0-1.3,0.1-1.9,0.3c-0.6,0.2-1.2,0.6-1.6,1.1
	c-0.5,0.5-0.9,1.2-1.1,2.1c-0.3,0.8-0.4,1.9-0.4,3.1v1.6c0,1.1,0.1,2,0.4,2.8c0.2,0.8,0.6,1.4,1.1,1.9s1,0.9,1.7,1.1
	c0.7,0.2,1.4,0.4,2.2,0.4c0.6,0,1.1-0.1,1.6-0.2c0.5-0.1,0.9-0.3,1.3-0.5c0.4-0.2,0.7-0.4,1-0.7c0.3-0.2,0.5-0.5,0.7-0.8l-1.2-1.4
	c-0.2,0.2-0.4,0.4-0.6,0.6c-0.2,0.2-0.4,0.4-0.7,0.5s-0.5,0.2-0.8,0.3s-0.7,0.1-1,0.1c-1.1,0-1.9-0.3-2.4-1
	c-0.6-0.7-0.8-1.8-0.8-3.3V133h7.8v-1.3c0-1.1-0.1-2-0.3-2.8s-0.5-1.5-0.9-2.1s-0.9-1-1.5-1.3C34.4,125.5,33.7,125.3,32.8,125.3
	L32.8,125.3z M32.8,127.3c0.5,0,0.9,0.1,1.2,0.3c0.3,0.2,0.6,0.4,0.8,0.8c0.2,0.3,0.3,0.7,0.4,1.2c0.1,0.4,0.2,0.9,0.2,1.5v0.3h-5.5
	c0-0.8,0.1-1.4,0.3-1.9s0.4-0.9,0.6-1.2c0.3-0.3,0.6-0.5,0.9-0.6C32,127.4,32.4,127.3,32.8,127.3L32.8,127.3z M20.1,125.3
	c-0.7,0-1.3,0.1-1.9,0.3c-0.6,0.2-1.2,0.6-1.6,1.1c-0.5,0.5-0.9,1.2-1.1,2.1c-0.3,0.8-0.4,1.9-0.4,3.1v1.6c0,1.1,0.1,2,0.4,2.8
	c0.2,0.8,0.6,1.4,1.1,1.9s1,0.9,1.7,1.1c0.7,0.2,1.4,0.4,2.2,0.4c0.6,0,1.1-0.1,1.6-0.2c0.5-0.1,0.9-0.3,1.3-0.5s0.7-0.4,1-0.7
	s0.5-0.5,0.7-0.8l-1.2-1.4c-0.2,0.2-0.4,0.4-0.6,0.6c-0.2,0.2-0.4,0.4-0.7,0.5c-0.3,0.1-0.5,0.2-0.8,0.3s-0.7,0.1-1,0.1
	c-1.1,0-1.9-0.3-2.4-1c-0.6-0.7-0.8-1.8-0.8-3.3V133H25v-1.3c0-1.1-0.1-2-0.3-2.8c-0.2-0.8-0.5-1.5-0.9-2.1s-0.9-1-1.5-1.3
	C21.8,125.5,21,125.3,20.1,125.3L20.1,125.3z M20.1,127.3c0.5,0,0.9,0.1,1.2,0.3c0.3,0.2,0.6,0.4,0.8,0.8c0.2,0.3,0.3,0.7,0.4,1.2
	c0.1,0.4,0.2,0.9,0.2,1.5v0.3h-5.5c0-0.8,0.1-1.4,0.3-1.9c0.2-0.5,0.4-0.9,0.6-1.2c0.3-0.3,0.6-0.5,0.9-0.6
	C19.4,127.4,19.7,127.3,20.1,127.3L20.1,127.3z"/>
</svg>
