<?xml version="1.0" encoding="utf-8"?>
<!-- Generator: Adobe Illustrator 24.1.1, SVG Export Plug-In . SVG Version: 6.00 Build 0)  -->
<svg version="1.1" id="Layer_1" xmlns="http://www.w3.org/2000/svg" xmlns:xlink="http://www.w3.org/1999/xlink" x="0px" y="0px"
	 viewBox="0 0 150 150" style="enable-background:new 0 0 150 150;" xml:space="preserve">
<style type="text/css">
	.st0{fill:#1C3AA9;}
	.st1{fill:#4285F4;}
	.st2{fill:#ABABAB;}
	.st3{fill:#737577;}
	.st4{enable-background:new    ;}
</style>
<path class="st0" d="M117,62.1c-6.4,0.1-22,0.1-35.8,0l10.9,10.8c-3.3,5.3-9,8.9-15.5,9.4c-0.4,0.1-0.9,0.2-1.5,0.2
	c-5.3,0-9.1-1.7-11.8-3.8c-2.5-1.8-4.7-4.2-6.2-7L41.7,87.3c7.6,10.1,19.8,16.6,33.4,16.6c13.1,0,24.8-6,32.5-15.4l9.4,9.4v-34
	C117,63.3,117,62.7,117,62.1"/>
<path class="st1" d="M74.8,104c-0.1-6.5,0-22.1,0.1-35.9L64,79c-5.3-3.3-8.9-9-9.4-15.5c-0.1-0.4-0.2-0.9-0.2-1.5
	c0-5.3,1.7-9.1,3.8-11.8c1.8-2.5,4.2-4.7,7-6.2L49.6,28.6C39.5,36.2,33,48.4,33,62c0,13.1,6,24.8,15.4,32.6L39,104h34
	C73.6,104,74.2,104,74.8,104"/>
<path class="st2" d="M33,62c6.4-0.1,22,0,35.8,0.1L57.9,51.2c3.3-5.3,9-8.9,15.5-9.4c0.4-0.1,0.9-0.2,1.5-0.2
	c5.3,0,9.1,1.7,11.8,3.8c2.5,1.8,4.7,4.2,6.2,7l15.4-15.6c-7.6-10.1-19.8-16.6-33.4-16.6c-13.1,0-24.8,6-32.5,15.4L33,26.2v34
	C33,60.8,33,61.4,33,62"/>
<path class="st3" d="M41,121c-0.8,0-1.6,0.2-2.3,0.5s-1.3,0.8-1.7,1.4s-0.8,1.3-1,2.1c-0.3,0.8-0.3,1.8-0.3,2.8v3c0,1,0.1,2,0.3,2.8
	c0.3,0.8,0.6,1.5,1,2.1s1,1,1.6,1.4c0.7,0.3,1.4,0.5,2.1,0.5c0.8,0,1.5-0.1,2.1-0.3s1.2-0.6,1.6-1s0.8-1,0.9-1.7
	c0.3-0.7,0.3-1.4,0.4-2.2h-2c-0.1,0.6-0.2,1.2-0.3,1.6s-0.3,0.8-0.5,1.1c-0.3,0.3-0.5,0.5-0.9,0.6c-0.3,0.2-0.8,0.2-1.4,0.2
	c-0.6,0-1.1-0.1-1.4-0.3c-0.4-0.3-0.8-0.6-1-1.1c-0.3-0.4-0.4-1-0.5-1.6s-0.2-1.3-0.2-2v-3c0-0.8,0.1-1.4,0.2-2
	c0.2-0.6,0.3-1.1,0.6-1.5s0.6-0.8,1-1s0.9-0.3,1.5-0.3c0.5,0,0.9,0.1,1.3,0.3s0.7,0.3,0.8,0.7c0.3,0.3,0.4,0.7,0.5,1.1
	s0.2,1,0.3,1.6h2c0-0.8-0.2-1.6-0.4-2.3c-0.3-0.7-0.6-1.2-0.9-1.7c-0.4-0.4-0.9-0.8-1.5-1C42.5,121.1,41.8,121,41,121L41,121z
	 M90.3,121c-0.8,0-1.6,0.2-2.3,0.5c-0.7,0.3-1.3,0.8-1.7,1.4c-0.4,0.6-0.8,1.3-1,2.1c-0.3,0.8-0.3,1.8-0.3,2.8v3c0,1,0.1,2,0.3,2.8
	c0.3,0.8,0.6,1.5,1,2.1s1,1,1.6,1.4c0.7,0.3,1.4,0.5,2.1,0.5c0.8,0,1.5-0.1,2.1-0.3s1.2-0.6,1.6-1s0.8-1,0.9-1.7
	c0.3-0.7,0.3-1.4,0.4-2.2h-2c-0.1,0.6-0.2,1.2-0.3,1.6c-0.1,0.4-0.3,0.8-0.5,1.1c-0.3,0.3-0.5,0.5-0.9,0.6c-0.3,0.2-0.8,0.2-1.4,0.2
	s-1.1-0.1-1.4-0.3c-0.4-0.3-0.8-0.6-1-1.1c-0.3-0.4-0.4-1-0.5-1.6s-0.2-1.3-0.2-2v-3c0-0.8,0.1-1.4,0.2-2c0.2-0.6,0.3-1.1,0.6-1.5
	c0.3-0.4,0.6-0.8,1-1s0.9-0.3,1.5-0.3c0.5,0,0.9,0.1,1.3,0.3c0.3,0.2,0.7,0.3,0.8,0.7c0.3,0.3,0.4,0.7,0.5,1.1s0.2,1,0.3,1.6h2
	c0-0.8-0.2-1.6-0.4-2.3c-0.3-0.7-0.6-1.2-0.9-1.7c-0.4-0.4-0.9-0.8-1.5-1C91.7,121.1,91,121,90.3,121L90.3,121z M52.5,121.2
	l-5.1,15.9h2l1.3-4.2H56l1.3,4.2h2l-5.1-15.9C54.2,121.2,52.5,121.2,52.5,121.2z M61.5,121.2v15.9h2v-6.2h3.1c0.8,0,1.4-0.1,2-0.3
	s1.1-0.5,1.4-0.9c0.4-0.4,0.7-0.9,0.9-1.5c0.2-0.6,0.3-1.3,0.3-2s-0.1-1.4-0.3-2c-0.2-0.6-0.5-1.1-0.9-1.5s-0.9-0.8-1.5-1
	s-1.3-0.3-2-0.3L61.5,121.2z M72.9,121.2v1.7H77v14.2h2v-14.2h4.2v-1.7H72.9z M97.9,121.2v15.9h2v-7.4h6.4v7.4h2v-15.9h-2v6.8H100
	v-6.8L97.9,121.2L97.9,121.2z M115.9,121.2l-5.1,15.9h2l1.3-4.2h5.4l1.3,4.2h2l-5.1-15.9C117.7,121.2,115.9,121.2,115.9,121.2z
	 M63.5,122.9h3.1c0.5,0,0.9,0.1,1.3,0.3c0.3,0.2,0.6,0.4,0.8,0.7c0.3,0.3,0.4,0.6,0.5,1c0.1,0.3,0.2,0.8,0.2,1.2s-0.1,0.8-0.2,1.3
	c-0.1,0.3-0.3,0.7-0.5,0.9c-0.3,0.3-0.5,0.5-0.8,0.6c-0.3,0.2-0.8,0.3-1.3,0.3h-3.1V122.9z M53.3,124l2.2,7.2h-4.3L53.3,124z
	 M116.8,124l2.2,7.2h-4.3L116.8,124z M12,125c-0.5,0-0.9,0.1-1.3,0.3s-0.7,0.6-0.9,1v-1.2H7.9V137h2v-8.5c0.2-0.5,0.4-0.9,0.8-1.2
	s0.8-0.4,1.3-0.4c0.2,0,0.3,0,0.4,0c0.2,0,0.3,0,0.4,0.1v-1.9c0,0-0.1,0-0.2-0.1c-0.1,0-0.1,0-0.2-0.1C12.3,124.9,12.2,124.9,12,125
	L12,125L12,125z M29.2,125c-0.6,0-1.1,0.1-1.6,0.3s-1,0.5-1.4,0.9s-0.8,1-0.9,1.8c-0.3,0.7-0.3,1.6-0.3,2.6v1.4
	c0,0.9,0.1,1.7,0.3,2.4c0.2,0.7,0.5,1.2,0.9,1.6c0.4,0.4,0.8,0.8,1.4,0.9c0.6,0.2,1.2,0.3,1.9,0.3c0.5,0,0.9-0.1,1.4-0.2
	c0.4-0.1,0.8-0.3,1.1-0.4c0.3-0.2,0.6-0.3,0.8-0.6c0.3-0.2,0.4-0.4,0.6-0.7l-1-1.2c-0.2,0.2-0.3,0.3-0.5,0.5s-0.3,0.3-0.6,0.4
	c-0.3,0.1-0.4,0.2-0.7,0.3c-0.3,0.1-0.6,0.1-0.8,0.1c-0.9,0-1.6-0.3-2-0.8c-0.5-0.6-0.7-1.5-0.7-2.8v-0.3h6.6v-1.1
	c0-0.9-0.1-1.7-0.3-2.4c-0.2-0.7-0.4-1.3-0.8-1.8c-0.4-0.5-0.8-0.8-1.3-1.1C30.6,125.2,30,125,29.2,125L29.2,125z M29.2,126.7
	c0.4,0,0.8,0.1,1,0.3c0.3,0.2,0.5,0.3,0.7,0.7c0.2,0.3,0.3,0.6,0.3,1c0.1,0.3,0.2,0.8,0.2,1.3v0.3h-4.7c0-0.7,0.1-1.2,0.3-1.6
	s0.3-0.8,0.5-1c0.3-0.3,0.5-0.4,0.8-0.5C28.5,126.8,28.9,126.7,29.2,126.7L29.2,126.7z M18.4,125c-0.6,0-1.1,0.1-1.6,0.3
	s-1,0.5-1.4,0.9s-0.8,1-0.9,1.8c-0.3,0.7-0.3,1.6-0.3,2.6v1.4c0,0.9,0.1,1.7,0.3,2.4s0.5,1.2,0.9,1.6s0.8,0.8,1.4,0.9
	c0.6,0.2,1.2,0.3,1.9,0.3c0.5,0,0.9-0.1,1.4-0.2c0.4-0.1,0.8-0.3,1.1-0.4s0.6-0.3,0.8-0.6c0.3-0.3,0.4-0.4,0.6-0.7l-1-1.2
	c-0.2,0.2-0.3,0.3-0.5,0.5s-0.3,0.3-0.6,0.4c-0.3,0.1-0.4,0.2-0.7,0.3c-0.3,0.1-0.6,0.1-0.8,0.1c-0.9,0-1.6-0.3-2-0.8
	c-0.5-0.6-0.7-1.5-0.7-2.8v-0.3h6.3v-1.1c0-0.9-0.1-1.7-0.3-2.4c-0.2-0.7-0.4-1.3-0.8-1.8s-0.8-0.8-1.3-1.1
	C19.9,125.2,19.2,125,18.4,125L18.4,125z M18.4,126.7c0.4,0,0.8,0.1,1,0.3s0.5,0.3,0.7,0.7c0.2,0.3,0.3,0.6,0.3,1
	c0.1,0.3,0.2,0.8,0.2,1.3v0.3H16c0-0.7,0.1-1.2,0.3-1.6c0.2-0.4,0.3-0.8,0.5-1c0.3-0.3,0.5-0.4,0.8-0.5
	C17.8,126.8,18.1,126.7,18.4,126.7L18.4,126.7z"/>
<g class="st4">
	<path class="st3" d="M127.9,136.6c0,0.6-0.3,0.8-0.8,0.8c-0.4,0-0.8-0.3-1-0.8l-1.4-3.7l-1.6-4.2c-0.1-0.2-0.1-0.3-0.1-0.4
		c0-0.3,0.1-0.5,0.3-0.6c0.2-0.2,0.4-0.3,0.7-0.3c0.4,0,0.6,0.2,0.8,0.6l2.3,6.4c0.5-1,1-2.4,1.7-4.3c0.2-0.5,0.4-1.2,0.8-2.1
		c0.2-0.4,0.5-0.6,0.8-0.6c0.3,0,0.5,0.1,0.7,0.3c0.2,0.2,0.3,0.4,0.3,0.6c0,0.2-0.5,1.5-1.5,3.9L127.9,136.6z"/>
	<path class="st3" d="M140.8,137.1c-0.2,0-0.4,0-0.6-0.1c-0.3-0.1-0.5-0.1-0.6-0.1c-0.3,0-0.8,0-1.4,0.1s-1.1,0.1-1.4,0.1
		c-0.2,0-0.6,0-1.1,0.1c-0.5,0.1-0.8,0.1-1.1,0.1c-0.1,0-0.2,0-0.3,0s-0.2,0-0.3,0c-0.4,0-0.7-0.2-0.8-0.6c-0.1-0.2-0.1-0.6-0.1-1.1
		c0-1.4,0.4-2.6,1.2-3.5c0.4-0.4,1.3-1.1,2.9-2.2c0.9-0.6,1.5-1.1,1.8-1.4c0.5-0.6,0.8-1.3,0.8-2.1c0-0.4-0.3-0.7-0.8-1
		c-0.4-0.3-0.9-0.4-1.3-0.4c-0.6,0-1.1,0.2-1.6,0.5l-1.3,1c-0.3,0.2-0.5,0.3-0.6,0.3c-0.6,0-0.9-0.3-0.9-0.8c0-0.3,0.1-0.5,0.3-0.7
		c0.7-0.7,1.3-1.2,1.9-1.5c0.7-0.4,1.5-0.6,2.3-0.6c1,0,1.9,0.3,2.7,0.8c0.9,0.6,1.3,1.4,1.3,2.3c0,0.6-0.1,1.2-0.3,1.7
		c-0.2,0.5-0.4,1-0.8,1.4c-0.5,0.6-1.2,1.2-2.3,1.9c-1.2,0.7-1.9,1.3-2.3,1.6c-0.7,0.7-1,1.6-1,2.6l1.9-0.2c1.3-0.1,2.2-0.1,2.8-0.1
		c0.5,0,0.9,0.1,1.3,0.2c0.6,0.2,0.8,0.5,0.8,0.9c0,0.2-0.1,0.5-0.2,0.6C141.3,137,141,137.1,140.8,137.1z"/>
</g>
</svg>
